<?xml version="1.0" encoding="UTF-8" standalone="no"?>
<!-- Created with Inkscape (http://www.inkscape.org/) -->

<svg
   xmlns:dc="http://purl.org/dc/elements/1.1/"
   xmlns:cc="http://creativecommons.org/ns#"
   xmlns:rdf="http://www.w3.org/1999/02/22-rdf-syntax-ns#"
   xmlns:svg="http://www.w3.org/2000/svg"
   xmlns="http://www.w3.org/2000/svg"
   xmlns:sodipodi="http://sodipodi.sourceforge.net/DTD/sodipodi-0.dtd"
   xmlns:inkscape="http://www.inkscape.org/namespaces/inkscape"
   width="512"
   height="512"
   id="svg2"
   version="1.1"
   inkscape:version="0.48.3.1 r9886"
   sodipodi:docname="lime .svg">
  <defs
     id="defs4" />
  <sodipodi:namedview
     id="base"
     pagecolor="#ffffff"
     bordercolor="#666666"
     borderopacity="1.0"
     inkscape:pageopacity="0.0"
     inkscape:pageshadow="2"
     inkscape:zoom="0.98994949"
     inkscape:cx="202.96418"
     inkscape:cy="296.09224"
     inkscape:document-units="px"
     inkscape:current-layer="layer1"
     showgrid="false"
     inkscape:window-width="1855"
     inkscape:window-height="1176"
     inkscape:window-x="1345"
     inkscape:window-y="24"
     inkscape:window-maximized="1" />
  <metadata
     id="metadata7">
    <rdf:RDF>
      <cc:Work
         rdf:about="">
        <dc:format>image/svg+xml</dc:format>
        <dc:type
           rdf:resource="http://purl.org/dc/dcmitype/StillImage" />
        <dc:title></dc:title>
      </cc:Work>
    </rdf:RDF>
  </metadata>
  <g
     inkscape:label="Layer 1"
     inkscape:groupmode="layer"
     id="layer1"
     transform="translate(0,-540.36218)">
    <rect
       style="fill:#568420;fill-opacity:1;stroke:#000000;stroke-width:14.515;stroke-linejoin:round;stroke-miterlimit:4;stroke-opacity:1;stroke-dasharray:none"
       id="rect3004"
       width="400"
       height="400"
       x="50"
       y="62"
       transform="translate(0,540.36218)"
       rx="1"
       ry="1" />
    <rect
       style="fill:none;fill-opacity:1;stroke:#ffffff;stroke-width:12.39266014000000027;stroke-linejoin:round;stroke-miterlimit:4;stroke-opacity:1;stroke-dasharray:none"
       id="rect3004-1"
       width="341.51318"
       height="341.51318"
       x="79.243408"
       y="631.60559"
       rx="0.85378295"
       ry="0.85378295" />
    <path
       sodipodi:type="star"
       style="fill:#ffffff;fill-opacity:1;stroke:#ffffff;stroke-width:9.70000172;stroke-linejoin:round;stroke-miterlimit:4;stroke-opacity:1;stroke-dasharray:none"
       id="path3896"
       sodipodi:sides="5"
       sodipodi:cx="228.57143"
       sodipodi:cy="238.42857"
       sodipodi:r1="58.641075"
       sodipodi:r2="23.828857"
       sodipodi:arg1="0.59475926"
       sodipodi:arg2="1.2230778"
       inkscape:flatsided="false"
       inkscape:rounded="0.13"
       inkscape:randomized="0"
       d="m 277.14286,271.28572 c -3.04332,4.49882 -35.34523,-12.30519 -40.45166,-10.45438 -5.10644,1.8508 -19.14031,35.44898 -24.35938,33.94482 -5.21907,-1.50415 0.78066,-37.41781 -2.55754,-41.70239 -3.33819,-4.28458 -39.62867,-7.24918 -39.81091,-12.67761 -0.18224,-5.42844 35.82769,-10.8203 38.87101,-15.31912 3.04332,-4.49882 -5.35156,-39.92922 -0.24512,-41.78002 5.10643,-1.85081 21.36208,30.7305 26.58115,32.23466 5.21906,1.50415 36.32122,-17.42844 39.65941,-13.14387 3.3382,4.28458 -22.6252,29.8128 -22.44295,35.24123 0.18224,5.42844 27.7993,29.15786 24.75599,33.65668 z"
       transform="translate(0,540.36218)"
       inkscape:transform-center-x="5.0183133"
       inkscape:transform-center-y="0.60801641" />
    <rect
       style="fill:#ffffff;fill-opacity:1;stroke:#ffffff;stroke-width:10.69136524;stroke-linejoin:round;stroke-miterlimit:4;stroke-opacity:1;stroke-dasharray:none"
       id="rect3900"
       width="112.80751"
       height="10"
       x="84.10714"
       y="775.36212"
       rx="1.0372183"
       ry="0.85378295" />
    <rect
       ry="0.85378295"
       rx="1.0372183"
       y="103.92075"
       x="646.80707"
       height="10"
       width="112.80751"
       id="rect3902"
       style="fill:#ffffff;fill-opacity:1;stroke:#ffffff;stroke-width:10.69136524;stroke-linejoin:round;stroke-miterlimit:4;stroke-opacity:1;stroke-dasharray:none"
       transform="matrix(0.41157161,0.91137742,-0.91137742,0.41157161,0,0)" />
    <rect
       ry="0.46947336"
       rx="1.6520519"
       y="-401.93979"
       x="616.21582"
       height="5.4987431"
       width="179.67661"
       id="rect3906"
       style="fill:#ffffff;fill-opacity:1;stroke:#ffffff;stroke-width:10.00556564;stroke-linejoin:round;stroke-miterlimit:4;stroke-opacity:1;stroke-dasharray:none"
       transform="matrix(-0.20991469,0.97771971,-0.87636788,-0.48164233,0,0)" />
    <rect
       ry="0.85378295"
       rx="1.8925645"
       y="751.00073"
       x="-269.91217"
       height="10"
       width="205.83467"
       id="rect3908"
       style="fill:#ffffff;fill-opacity:1;stroke:#ffffff;stroke-width:14.44186974;stroke-linejoin:round;stroke-miterlimit:4;stroke-opacity:1;stroke-dasharray:none"
       transform="matrix(0.79070056,-0.61220309,0.61220309,0.79070056,0,0)" />
    <rect
       ry="0.69930667"
       rx="2.0380752"
       y="534.13879"
       x="626.00745"
       height="8.1906843"
       width="221.66035"
       id="rect3912"
       style="fill:#ffffff;fill-opacity:1;stroke:#ffffff;stroke-width:13.56338882;stroke-linejoin:round;stroke-miterlimit:4;stroke-opacity:1;stroke-dasharray:none"
       transform="matrix(0.84617022,0.53291272,-0.55758426,0.83012035,0,0)" />
    <rect
       style="fill:#ffffff;fill-opacity:1;stroke:none"
       id="rect3948"
       width="69.19545"
       height="23.738585"
       x="109.60155"
       y="181.17505"
       transform="translate(0,540.36218)"
       rx="1"
       ry="1" />
    <rect
       style="fill:#ffffff;fill-opacity:1;stroke:none"
       id="rect3950"
       width="105.05586"
       height="21.213203"
       x="289.91379"
       y="229.66237"
       transform="translate(0,540.36218)"
       rx="1"
       ry="1" />
    <rect
       style="fill:#ffffff;fill-opacity:1;stroke:none"
       id="rect3952"
       width="54.043159"
       height="13.131983"
       x="226.77925"
       y="318.05072"
       transform="translate(0,540.36218)"
       rx="1"
       ry="1" />
    <rect
       style="fill:#ffffff;fill-opacity:1;stroke:none"
       id="rect3954"
       width="89.398499"
       height="41.921329"
       x="283.34778"
       y="354.92126"
       transform="translate(0,540.36218)"
       rx="1"
       ry="1" />
    <rect
       style="fill:#ffffff;fill-opacity:1;stroke:none"
       id="rect3956"
       width="76.266518"
       height="28.789347"
       x="107.58125"
       y="291.28168"
       transform="translate(0,540.36218)"
       rx="1"
       ry="1" />
  </g>
</svg>
